<svg width="290" height="290" viewBox="0 0 290 290" fill="none" xmlns="http://www.w3.org/2000/svg">
<g clip-path="url(#clip0_738_7534)">
<rect width="290" height="290" fill="#FDD8D8"/>
<path d="M61.6115 371.574C63.735 410.634 68.0514 462.422 76.7048 522.581L276.122 509.78L356.23 357.557L355.92 286.7C355.92 286.7 218.245 161.766 59.7476 293.226" fill="#18181B"/>
<path d="M224.359 235.042L207.742 171.482L160.303 186.883V240.421L158.757 260.936L164.961 273.476L177.991 271.494L205.265 269.095" fill="#F5F6F7"/>
<mask id="mask0_738_7534" style="mask-type:luminance" maskUnits="userSpaceOnUse" x="158" y="171" width="67" height="103">
<path fill-rule="evenodd" clip-rule="evenodd" d="M224.371 235.042L207.754 171.481L160.315 186.883V240.42L158.769 260.935L164.973 273.476L178.002 271.494L205.276 269.095" fill="white"/>
</mask>
<g mask="url(#mask0_738_7534)">
<path d="M145.646 251.499C205.493 239.772 153.416 226.024 174.738 215.987C180.604 213.225 171.267 184.537 171.267 184.537L155.007 195.174" fill="#B3B3BC"/>
</g>
<path d="M224.359 235.042L207.742 171.482L160.303 186.883V240.421L158.757 260.936L164.961 273.476L177.991 271.494L205.265 269.095" stroke="#18181B" stroke-width="5.20091" stroke-linecap="round" stroke-linejoin="round"/>
<path d="M196.523 169.546L179.84 130.021L132.95 93.2738C125.924 135.725 83.7021 254.941 176.764 209.051" fill="#F5F6F7"/>
<path d="M196.836 169.421L180.899 129.58C180.833 129.413 180.725 129.267 180.586 129.153L180.552 129.125L134.261 91.6147C133.692 91.154 132.924 91.0244 132.236 91.2729C131.547 91.5215 131.039 92.112 130.896 92.8298L130.877 92.9315C128.083 107.286 124.113 121.628 120.848 136.128C117.185 150.692 114.879 165.565 113.959 180.555C113.599 188.339 114.546 196.129 116.762 203.6C119.05 211.787 125.347 218.248 133.472 220.746C141.203 222.317 149.221 221.658 156.591 218.846C163.681 216.4 170.494 213.217 176.919 209.348C176.996 209.306 177.052 209.234 177.076 209.15C177.1 209.065 177.089 208.975 177.046 208.898C176.958 208.757 176.783 208.697 176.627 208.756C169.818 211.519 162.815 213.779 155.675 215.516C148.925 217.375 141.807 217.439 135.025 215.701C128.81 213.437 124.215 208.112 122.885 201.633C121.143 194.809 120.454 187.758 120.841 180.725C121.457 166.115 123.269 151.581 126.259 137.267C128.989 122.759 132.611 108.433 135.041 93.6207L131.658 94.9368L179.146 130.919L178.8 130.467L196.227 169.677C196.301 169.841 196.492 169.916 196.657 169.846C196.823 169.776 196.902 169.587 196.836 169.42V169.421Z" fill="#18181B"/>
<path d="M202.877 172.183C185.256 179.17 160.936 144.186 171.321 132.901C171.321 132.901 141.636 144.825 120.723 127.513C49.7822 136.66 54.4706 49.4925 116.693 74.4358C149.085 56.6111 185.136 74.2111 183.564 94.1574C207.936 72.6195 255.371 151.368 202.877 172.183Z" fill="#18181B"/>
<path d="M205.939 191.071C237.692 164.273 213.934 124.195 177.668 172.664Z" fill="#F5F6F7"/>
<path d="M206.154 191.323C212.586 186.67 217.657 180.382 220.843 173.111C222.393 169.243 223.027 165.07 222.696 160.917C222.397 156.3 220.034 152.063 216.264 149.382C212.231 146.932 207.359 146.276 202.822 147.572C198.707 148.687 194.881 150.675 191.603 153.401C185.489 158.601 180.635 165.119 177.405 172.466C177.341 172.61 177.385 172.78 177.512 172.874C177.638 172.969 177.813 172.964 177.934 172.862C183.98 167.827 189.563 162.742 195.547 158.702C198.388 156.75 201.44 155.123 204.645 153.855C207.461 152.369 210.837 152.406 213.621 153.953C216.404 155.5 218.218 158.347 218.444 161.524C219.012 165.04 218.763 168.641 217.717 172.046C215.458 179.256 211.321 185.736 205.73 190.819C205.666 190.878 205.628 190.961 205.624 191.049C205.621 191.136 205.652 191.222 205.712 191.286C205.829 191.407 206.018 191.423 206.154 191.323V191.323Z" fill="#18181B"/>
<rect width="8.82749" height="16.2814" rx="3.47421" transform="matrix(-0.951932 -0.30631 -0.30631 0.951932 145.912 147.662)" fill="#18181B"/>
<path d="M142.381 131.038C155.254 134.558 156.388 140.729 148.196 139.053C140.003 137.376 133.971 128.737 142.381 131.038Z" fill="#18181B"/>
<path d="M127.637 150.805C108.984 155.739 109.461 173.864 121.433 173.447Z" fill="#F5F6F7"/>
<path d="M127.558 150.486C124.468 150.835 121.462 151.715 118.672 153.087C115.698 154.699 113.23 157.106 111.546 160.04C109.277 163.373 109.098 167.706 111.084 171.215C113.285 174.722 117.869 175.855 121.451 173.777C121.629 173.658 121.678 173.416 121.559 173.238C121.522 173.189 121.478 173.148 121.426 173.116C119.264 172.127 117.611 170.28 116.868 168.021C116.172 166.14 116.01 164.103 116.399 162.136C117.174 159.674 118.619 157.476 120.572 155.79C122.672 153.835 125.092 152.257 127.728 151.124C127.811 151.095 127.879 151.033 127.917 150.952C127.954 150.871 127.957 150.779 127.926 150.696C127.859 150.556 127.713 150.472 127.558 150.486Z" fill="#18181B"/>
<ellipse opacity="0.27" cx="10.0508" cy="7.41187" rx="10.0508" ry="7.41187" transform="matrix(-0.989906 -0.141725 -0.141725 0.989906 162.117 163.157)" fill="#B3B3BC"/>
<path d="M143.76 177.94C139.337 181.814 133.156 182.972 127.63 180.963Z" fill="#F5F6F7"/>
<path d="M143.537 177.686C141.016 178.694 138.31 179.156 135.597 179.044C134.338 179.002 133.211 178.185 132.067 178.582C130.528 179.042 129.071 179.743 127.751 180.658L127.681 180.704C127.496 180.824 127.416 181.055 127.488 181.264C128.125 183.149 129.639 184.606 131.548 185.168C133.283 185.477 135.071 185.146 136.58 184.237C138.125 183.622 139.573 182.787 140.878 181.757C142.051 180.702 143.087 179.503 143.962 178.189C144.014 178.115 144.034 178.023 144.018 177.934C144.002 177.844 143.952 177.765 143.877 177.713C143.774 177.653 143.649 177.643 143.537 177.686Z" fill="#18181B"/>
<path d="M154.953 300.572L177.988 271.5C177.988 271.5 159.241 266.005 157.96 229.017L139.522 244.454L154.953 300.572Z" fill="#18181B"/>
<path d="M248.787 236.607C242.354 226.35 232.002 219.173 220.141 216.745C220.141 216.745 224.997 257.468 178 271.497L202.688 305.127C202.688 305.127 245.807 264.185 248.787 236.607Z" fill="#18181B"/>
<path d="M118.797 74.3221C117.911 74.2749 117.022 74.3192 116.144 74.4543C115.79 74.5203 114.925 74.33 115.261 74.7423C115.939 75.5055 116.737 76.1528 117.624 76.6584C117.809 76.7793 118.007 76.8788 118.214 76.9551C119.15 77.3642 120.146 77.6175 121.164 77.705C121.693 77.7281 121.026 77.148 120.867 76.8242C120.451 76.0401 119.955 75.3009 119.387 74.6181C119.243 74.4391 119.028 74.3313 118.797 74.3221V74.3221Z" fill="#18181B"/>
<path d="M200.412 168.522C200.622 168.975 200.516 169.512 200.148 169.851C199.924 170.104 199.616 170.268 199.281 170.313C198.986 170.413 198.137 170.04 198.717 169.917C199.158 169.866 200.258 170.03 200.707 171.876L200.749 172.047C200.789 172.207 200.863 172.356 200.966 172.484C201.397 173.065 202.063 173.425 202.785 173.467C203.507 173.51 204.211 173.23 204.707 172.704C205.642 171.818 204.912 170.584 204.546 169.846C204.167 169.071 203.581 168.416 202.853 167.952C202.143 167.569 201.295 167.541 200.56 167.874C200.361 167.988 200.281 168.234 200.377 168.443L200.412 168.522Z" fill="#18181B"/>
</g>
<defs>
<clipPath id="clip0_738_7534">
<rect width="290" height="290" fill="white"/>
</clipPath>
</defs>
</svg>
