<svg width="290" height="290" viewBox="0 0 290 290" fill="none" xmlns="http://www.w3.org/2000/svg">
<g clip-path="url(#clip0_738_7594)">
<rect width="290" height="290" fill="#E1D8FD"/>
<g clip-path="url(#clip1_738_7594)">
<path fill-rule="evenodd" clip-rule="evenodd" d="M-41.4989 413.116L-30.5469 428.352C-29.7402 430.515 -28.9407 432.814 -28.2879 435.088L-27.3907 438.541L-27.1614 439.436C-27.1129 439.636 -27.0314 439.827 -26.9203 440C-26.7654 440.229 -26.4867 440.339 -26.2173 440.28C-26.0611 440.232 -25.9211 440.142 -25.8123 440.02L-24.656 438.578C-21.445 435.144 -17.4155 432.58 -12.9442 431.125C-5.87992 428.506 1.25381 426.029 8.38473 423.554C10.2962 422.89 12.2075 422.226 14.1172 421.56L68.3314 402.63C86.3715 396.237 104.338 389.65 122.232 382.869C137.01 377.368 151.718 371.682 166.427 365.997C169.567 364.783 172.707 363.569 175.848 362.357L175.907 362.335L175.959 362.313C177.566 361.651 178.331 359.812 177.669 358.205L149.497 289.854L149.479 289.808L149.444 289.73C149.164 289.116 148.652 288.639 148.02 288.403C147.388 288.168 146.688 288.193 146.075 288.474L28.0523 342.426L-30.798 369.76L-45.514 376.586L-52.877 379.988L-56.5592 381.688C-57.4017 382.015 -57.9017 382.885 -57.759 383.777C-57.6679 384.496 -57.4727 385.197 -57.1796 385.859C-54.6985 390.7 -51.8214 395.329 -48.5778 399.697L-44.0188 406.394C-43.2828 407.522 -42.5488 408.655 -41.8953 409.821C-41.5669 410.392 -41.2777 410.984 -41.0298 411.595L-41.0081 411.662C-40.7972 412.318 -40.6613 412.74 -41.1725 412.595C-41.2662 412.569 -41.3666 412.586 -41.446 412.643C-41.5887 412.746 -41.6212 412.945 -41.5187 413.088L-41.4989 413.116ZM-27.4691 434.841C-28.2025 432.528 -29.0271 430.325 -29.966 428.035L-40.6413 413.181C-40.3726 413.057 -40.1467 412.822 -40.166 412.486C-40.1775 412.102 -40.2597 411.723 -40.4085 411.369C-40.6681 410.726 -40.9719 410.102 -41.3177 409.502C-41.9857 408.308 -42.723 407.17 -43.465 406.035L-48.0325 399.325C-51.2215 394.995 -53.9959 390.376 -56.3191 385.526C-56.7407 384.354 -57.229 382.834 -56.146 382.619L-52.4289 380.999L-44.9939 377.756L-30.1133 371.297L29.4209 345.485L145.715 294.228L170.587 357.544C168.516 358.31 166.446 359.075 164.375 359.84C149.501 365.336 134.627 370.832 119.823 376.515C101.934 383.307 84.1036 390.253 66.3309 397.353L13.1521 419.024L-13.4746 429.777C-18.1019 431.43 -22.2333 434.232 -25.4811 437.919L-26.2754 438.975L-26.4662 438.306L-27.4691 434.841ZM-26.2754 438.975L-26.5243 439.306C-26.5455 439.334 -26.5573 439.343 -26.557 439.344C-26.5566 439.344 -26.5314 439.326 -26.4734 439.313C-26.3508 439.292 -26.2251 439.325 -26.1286 439.404L-26.2277 439.143L-26.2754 438.975ZM170.587 357.544L171.779 360.58L173.6 356.429C172.596 356.801 171.591 357.173 170.587 357.544ZM145.715 294.228L148.167 293.147L144.749 291.769L145.715 294.228ZM-40.6413 413.181L-40.9629 412.733L-41.2893 413.253C-41.1231 413.31 -40.8671 413.285 -40.6413 413.181Z" fill="#18181B"/>
<path d="M109.595 302.843C109.595 302.843 104.634 362.959 154.158 389.41L212.487 365.123C225.425 359.735 235.492 349.14 240.211 335.943C244.929 322.745 243.863 308.17 237.274 295.799V295.799C224.899 272.566 196.567 262.993 172.636 273.959L109.595 302.843Z" fill="#ECEDEE"/>
<path fill-rule="evenodd" clip-rule="evenodd" d="M141.428 286.246C130.5 291.672 119.81 297.211 109.332 302.654L109.329 302.651C108.773 311.304 109.291 319.994 110.871 328.52C112.381 337.03 114.958 345.315 118.542 353.18C122.109 361.118 126.952 368.418 132.879 374.791C138.824 381.2 145.737 386.637 153.366 390.906C153.774 391.152 154.275 391.193 154.718 391.016L154.818 390.976L188.486 377.354L205.32 370.542C211.175 368.486 216.811 365.85 222.143 362.675C244.608 348.085 252.524 318.945 240.529 294.994C228.413 270.819 199.774 259.986 174.691 270.09C165.809 274.014 157.357 278.259 148.93 282.492C146.43 283.747 143.933 285.002 141.428 286.246ZM112.194 328.264C110.477 319.967 109.697 311.504 109.867 303.033C132.895 293.802 155.1 284.552 176.697 275.377C198.957 267.485 223.637 277.114 234.671 297.995C245.833 319.122 239.273 345.266 219.459 358.62C214.438 361.731 209.12 364.336 203.584 366.396L186.891 373.545L154.241 387.527C147.092 383.644 140.56 378.72 134.858 372.914C128.938 366.88 124.047 359.917 120.381 352.3C116.652 344.664 113.902 336.588 112.194 328.264ZM154.241 387.527L153.505 387.842L154.958 387.912C154.718 387.785 154.479 387.657 154.241 387.527Z" fill="#18181B"/>
<path d="M162.448 281.039L125.27 214.499L174.169 178.9L223.63 257.207L162.448 281.039" fill="#F5F6F7"/>
<mask id="mask0_738_7594" style="mask-type:luminance" maskUnits="userSpaceOnUse" x="125" y="178" width="99" height="104">
<path fill-rule="evenodd" clip-rule="evenodd" d="M162.448 281.039L125.27 214.499L174.169 178.9L223.63 257.207L162.448 281.039" fill="white"/>
</mask>
<g mask="url(#mask0_738_7594)">
<path d="M158.435 193.171C129.183 245.517 179.994 273.832 179.994 273.832L132.848 274.616L99.4766 209.519L150.796 200.715" fill="#B3B3BC"/>
</g>
<path d="M162.448 281.039L125.27 214.499L174.169 178.9L223.63 257.207L162.448 281.039" stroke="#18181B" stroke-width="1.24905" stroke-linecap="round" stroke-linejoin="round"/>
<path d="M149.843 214.78C80.8985 254.201 77.6822 179.651 114.872 126.558C160.471 61.4593 185.694 152.217 185.694 152.217L177.078 178.896" fill="#F5F6F7"/>
<path d="M150.009 215.066C140.745 221.047 130.312 224.984 119.407 226.614C113.738 227.303 107.995 226.204 102.98 223.472C98.1101 220.337 94.4099 215.684 92.4519 210.234C89.0391 199.51 88.4911 188.079 90.8622 177.077C92.8704 166.167 96.2705 155.559 100.979 145.514C105.633 135.406 111.475 125.89 118.384 117.166C121.908 112.632 126.064 108.626 130.723 105.268C135.715 101.565 141.788 99.6095 148.003 99.705C154.221 100.285 160.062 102.946 164.58 107.258C168.793 111.197 172.373 115.762 175.196 120.792C180.776 130.449 184.945 140.855 187.575 151.694L187.606 151.817C187.69 152.148 187.671 152.497 187.552 152.817C184.331 161.597 180.946 170.323 177.397 178.998C177.336 179.165 177.154 179.254 176.985 179.199C176.816 179.145 176.72 178.966 176.769 178.795C178.974 169.687 181.332 160.628 183.843 151.619L183.82 152.738C180.36 142.657 175.751 133.007 170.085 123.98C164.399 115.426 156.762 107.086 147.596 106.544C138.447 105.994 129.668 113.217 122.92 120.991C115.997 129.111 110.112 138.061 105.4 147.634C100.591 157.201 97.0296 167.345 94.8014 177.818C92.2943 188.146 92.4711 198.943 95.3147 209.184C96.8783 214.125 100.026 218.414 104.271 221.387C108.801 224.044 114.047 225.224 119.279 224.765C130.026 223.531 140.389 220.03 149.682 214.493C149.758 214.449 149.849 214.438 149.933 214.461C150.018 214.484 150.09 214.54 150.133 214.616C150.217 214.776 150.163 214.973 150.009 215.066V215.066Z" fill="#18181B"/>
<path d="M159.008 170.178C125.137 170.178 153.363 135.281 114.873 126.557C70.7231 82.6794 121.287 65.5478 141.046 88.5796C158.407 43.4013 192.879 60.3539 181.075 105.002C224.05 76.2612 221.354 120.438 206.402 138.655C260.531 140.182 194.716 202.319 191.637 202.319L151.31 184.035L159.008 170.178Z" fill="#18181B"/>
<path d="M134.512 166.122C175.04 141.747 185.704 186.245 149.266 193.787Z" fill="#F5F6F7"/>
<path d="M134.339 165.839C139.856 161.876 146.109 159.053 152.73 157.537C156.292 156.9 159.952 157.079 163.434 158.062C167.184 159.231 170.349 161.784 172.284 165.203C176.185 172.342 174.8 181.212 168.91 186.823C163.661 191.838 156.58 194.474 149.329 194.111C149.142 194.103 148.995 193.945 149.002 193.758C149.013 193.633 149.086 193.523 149.195 193.463C154.818 190.818 159.848 187.063 163.981 182.423C167.83 178.539 169.217 172.847 167.588 167.628C164.74 162.466 158.898 159.718 153.106 160.819C146.655 161.448 140.393 163.347 134.678 166.406L134.644 166.421C134.487 166.483 134.308 166.417 134.229 166.268C134.151 166.118 134.198 165.933 134.338 165.839H134.339Z" fill="#18181B"/>
<path d="M160.284 271.454L158.434 259.231C196.513 200.208 213.698 193.716 211.063 237.793L163.123 267.525" fill="white"/>
<path d="M159.959 271.504L157.726 259.34C157.696 259.181 157.727 259.016 157.811 258.878L157.832 258.843C166.218 244.162 175.939 230.284 186.873 217.387C189.788 214.056 193.145 211.14 196.85 208.718C199.067 207.265 201.686 206.548 204.334 206.67C207.303 207.102 209.858 208.993 211.139 211.706C213.066 215.902 214.144 220.438 214.31 225.053C214.625 229.36 214.674 233.683 214.456 237.997C214.415 239.056 213.861 240.029 212.972 240.606L212.856 240.68C204.94 245.755 196.752 250.393 188.518 254.952C184.454 257.318 180.209 259.393 176.048 261.602C171.88 263.801 167.608 265.831 163.301 267.807C163.146 267.903 162.943 267.855 162.846 267.7C162.75 267.545 162.798 267.341 162.953 267.245C166.636 264.265 170.353 261.34 174.175 258.583C178.004 255.838 181.75 252.958 185.672 250.368C193.418 245.017 201.209 239.744 209.273 234.908L207.674 237.59C207.966 233.493 208.156 229.397 208.098 225.377C208.195 221.581 207.58 217.801 206.283 214.232C205.557 212.738 204.764 211.869 203.681 211.763C202.113 211.705 200.564 212.114 199.229 212.937C195.815 214.978 192.69 217.467 189.937 220.337C184.159 226.304 178.766 232.632 173.79 239.284C168.683 245.9 163.803 252.717 159.037 259.616L159.143 259.122L160.614 271.402C160.641 271.582 160.517 271.75 160.337 271.778C160.156 271.805 159.988 271.681 159.96 271.501L159.959 271.504Z" fill="#18181B"/>
<path d="M14.2648 466.289C6.56026 479.498 107.137 537.997 186.645 529.627C196.43 466.571 332.266 320.742 211.301 227.977L158.426 259.229C158.426 259.229 109.599 302.843 14.2648 466.289Z" fill="#ECEDEE"/>
<path fill-rule="evenodd" clip-rule="evenodd" d="M14.2648 466.289C6.56026 479.498 107.137 537.997 186.645 529.627C196.43 466.571 332.266 320.742 211.301 227.977L158.426 259.229C158.426 259.229 109.599 302.843 14.2648 466.289Z" stroke="#18181B" stroke-width="1.24905" stroke-linecap="round" stroke-linejoin="round"/>
<rect x="-211.541" y="169.222" width="167.546" height="569.923" rx="4.08653" transform="rotate(-34.4924 -211.541 169.222)" fill="white"/>
<path fill-rule="evenodd" clip-rule="evenodd" d="M-3.39323 473.403L98.6869 621.326L98.6842 621.329C105.493 631.285 119.033 633.933 129.092 627.276L138.397 620.974L175.571 595.734L212.858 570.662L231.511 558.141C238.484 553.804 242.687 546.142 242.597 537.931C242.543 533.847 241.413 529.85 239.32 526.342C237.966 524.173 236.619 522.183 235.273 520.193C234.534 519.102 233.796 518.01 233.056 516.889L220.539 498.231L195.48 460.935L145.062 386.548L43.257 238.438L-59.0371 90.664C-66.5802 79.7653 -81.479 76.9471 -92.4817 84.3377L-101.753 90.7301L-138.715 116.277L-175.677 141.823L-194.158 154.596C-201.223 159.117 -205.422 166.993 -205.236 175.379C-205.13 179.514 -203.935 183.547 -201.772 187.073C-200.381 189.237 -199.008 191.206 -197.635 193.175C-196.882 194.256 -196.128 195.337 -195.372 196.45L-182.599 214.931L-157.052 251.893L-105.96 325.817L-3.39323 473.403ZM118.272 629.986C110.776 630.546 103.539 627.113 99.2322 620.952L-2.24469 472.617L-103.232 323.946L-153.917 249.742L-179.259 212.639L-191.929 194.088C-192.664 192.995 -193.427 191.887 -194.19 190.779C-195.565 188.78 -196.94 186.782 -198.147 184.88C-199.907 181.98 -200.87 178.667 -200.938 175.276C-201.063 168.356 -197.535 161.882 -191.651 158.236L-173.1 145.565L-135.997 120.223L-98.8977 94.8814L-89.6398 88.5722C-80.9705 82.8132 -69.284 85.0766 -63.3917 93.6558L37.8705 242.138L139.62 390.286L190.979 464.027L216.808 500.795L229.735 519.17C230.481 520.246 231.253 521.335 232.026 522.425C233.433 524.41 234.841 526.396 236.088 528.301C237.919 531.219 238.947 534.57 239.067 538.013C239.881 549.484 230.28 555.753 220.733 561.987C217.481 564.11 214.235 566.229 211.41 568.548L174.633 594.364L137.742 620.014C136.286 620.954 134.861 621.983 133.436 623.013C128.76 626.39 124.08 629.771 118.272 629.986Z" fill="#18181B"/>
<rect x="-146.65" y="107.972" width="569.923" height="167.546" rx="4.08653" transform="rotate(38.8859 -146.65 107.972)" fill="#18181B"/>
<rect x="-79.4238" y="257.814" width="23.6515" height="352.087" rx="1.42867" transform="rotate(-51.1141 -79.4238 257.814)" fill="white"/>
<path fill-rule="evenodd" clip-rule="evenodd" d="M85.4673 392.22C119.974 419.418 154.48 446.617 188.549 474.358C191.844 477.04 196.663 476.672 199.512 473.519L203.208 469.063C204.6 467.639 205.738 465.987 206.571 464.178C207.259 462.19 207.156 460.014 206.283 458.1C205.316 456.313 203.924 454.793 202.229 453.673L193.326 446.331L157.986 416.627C134.48 396.758 110.85 377.042 87.0953 357.482L15.219 299.556L-57.0299 242.095C-61.2861 238.716 -67.4433 239.263 -71.037 243.34L-74.7191 247.924L-76.5183 250.179C-77.3167 251.157 -77.9333 252.27 -78.3385 253.466C-79.585 257.208 -78.5253 261.334 -75.6296 264.012C-74.9985 264.571 -74.5315 264.937 -74.0654 265.303C-73.8059 265.507 -73.5467 265.71 -73.2596 265.947L-64.2389 273.142L-28.1561 301.924L44.0096 359.486C57.81 370.42 71.6386 381.32 85.4673 392.22ZM198.818 472.907C196.305 475.792 191.972 476.204 188.96 473.844L188.961 473.842C154.627 446.419 120.732 418.451 86.8363 390.484C73.2603 379.282 59.6841 368.08 46.0797 356.913L-25.4642 298.577L-61.2365 269.409L-70.1793 262.117C-70.4183 261.918 -70.6925 261.696 -70.9668 261.475C-71.4712 261.068 -71.9763 260.66 -72.2651 260.388C-73.7059 259.024 -74.216 256.944 -73.5694 255.069C-73.3476 254.442 -73.0116 253.862 -72.5783 253.357L-70.7554 251.121L-67.1684 246.746C-65.4029 244.784 -62.4103 244.546 -60.3571 246.205L11.1036 304.644L82.9382 362.621C107.05 381.737 131.323 400.656 155.757 419.376L192.272 447.623L201.333 454.769C202.89 455.729 204.187 457.059 205.109 458.639C205.884 460.25 206.01 462.097 205.461 463.798C204.703 465.494 203.665 467.051 202.391 468.403L198.818 472.907Z" fill="#18181B"/>
<path d="M104.895 322.406C104.895 322.406 110.735 385.962 167.183 404.456L223.513 368.463C236.009 360.478 244.558 347.593 247.058 332.976C249.558 318.359 245.778 303.366 236.646 291.681V291.681C219.497 269.737 188.222 264.95 165.294 280.76L104.895 322.406Z" fill="#ECEDEE"/>
<path fill-rule="evenodd" clip-rule="evenodd" d="M104.895 322.406C104.895 322.406 110.735 385.962 167.183 404.456L223.513 368.463C236.009 360.478 244.558 347.593 247.058 332.976C249.558 318.359 245.778 303.366 236.646 291.681V291.681C219.497 269.737 188.222 264.95 165.294 280.76L104.895 322.406Z" stroke="#18181B" stroke-width="1.24905" stroke-linecap="round" stroke-linejoin="round"/>
<rect x="116.793" y="166.279" width="8.81457" height="16.2582" rx="0.833181" transform="rotate(-163.379 116.793 166.279)" fill="#18181B"/>
<path d="M117.686 134.189C130.612 137.432 131.873 143.568 123.66 142.068C115.448 140.568 109.241 132.071 117.686 134.189Z" fill="#18181B"/>
<path d="M103.391 154.236C84.8744 159.558 85.7347 177.642 97.6784 176.972Z" fill="#F5F6F7"/>
<path d="M103.474 154.554C100.867 155.741 98.4847 157.368 96.4312 159.365C94.5174 161.09 93.1218 163.314 92.4009 165.788C92.0554 167.76 92.2612 169.788 92.9955 171.65C93.7842 173.89 95.4718 175.7 97.6515 176.643C97.7427 176.692 97.8104 176.775 97.8396 176.874C97.8688 176.974 97.857 177.081 97.8068 177.171C97.7759 177.222 97.7358 177.267 97.6885 177.303C94.1565 179.457 89.5531 178.423 87.2803 174.967C85.224 171.505 85.3114 167.177 87.5056 163.801C89.1258 160.836 91.5385 158.38 94.4742 156.707C97.2311 155.279 100.214 154.337 103.291 153.924C103.471 153.891 103.643 154.009 103.677 154.188C103.69 154.34 103.61 154.485 103.474 154.554Z" fill="#18181B"/>
<ellipse opacity="0.27" cx="120.317" cy="174.558" rx="11.1337" ry="6.41816" fill="#B3B3BC"/>
<path d="M119.429 184.635C115.096 188.595 108.95 189.883 103.391 187.995Z" fill="#F5F6F7"/>
<path d="M119.642 184.883C118.797 186.213 117.788 187.432 116.639 188.51C115.359 189.567 113.931 190.432 112.402 191.078C110.914 192.019 109.135 192.388 107.396 192.116C105.478 191.594 103.935 190.17 103.261 188.301C103.184 188.094 103.258 187.861 103.441 187.736L103.511 187.69C104.809 186.745 106.248 186.013 107.775 185.52C108.908 185.1 110.05 185.891 111.307 185.907C114.018 185.963 116.71 185.445 119.207 184.387C119.377 184.304 119.582 184.375 119.665 184.545C119.709 184.655 119.701 184.78 119.642 184.883V184.883Z" fill="#18181B"/>
<path d="M152.185 171.834C152.49 171.065 153.236 170.563 154.063 170.571C154.89 170.579 155.627 171.095 155.917 171.869C156.227 172.509 156.373 173.217 156.342 173.927C156.439 174.579 156.905 175.616 156.119 175.958C154.986 176.384 153.711 176.158 152.792 175.37C152.626 175.263 152.484 175.122 152.377 174.956L152.336 174.89C151.803 174.024 151.196 173.207 150.521 172.446C150.16 172.109 150.968 172.417 151.31 172.307C151.387 172.645 151.569 172.95 151.828 173.18C152.138 173.663 152.776 173.845 152.906 173.684C153.242 173.296 152.774 172.784 152.36 172.468L152.274 172.402C152.099 172.266 152.06 172.017 152.185 171.834V171.834Z" fill="#18181B"/>
<path d="M156.441 104.91C156.676 107.676 157.2 110.409 158.006 113.066C158.381 114.341 159.405 115.412 159.2 116.707C159.012 118.364 158.444 119.955 157.54 121.357C157.414 121.568 157.162 121.668 156.926 121.602C155.11 121.098 153.594 119.847 152.755 118.16C152.241 116.622 152.233 114.96 152.732 113.418C153.093 110.334 154.141 107.372 155.801 104.748C155.85 104.67 155.929 104.615 156.019 104.595C156.109 104.576 156.204 104.592 156.282 104.642C156.373 104.702 156.432 104.801 156.441 104.91Z" fill="#18181B"/>
</g>
</g>
<defs>
<clipPath id="clip0_738_7594">
<rect width="290" height="290" fill="white"/>
</clipPath>
<clipPath id="clip1_738_7594">
<rect width="218" height="1088" fill="white" transform="translate(79 62)"/>
</clipPath>
</defs>
</svg>
