<svg width="181" height="160" viewBox="0 0 181 160" fill="none" xmlns="http://www.w3.org/2000/svg">
<path d="M109.107 0.338815C88.6409 -4.14307 12.6693 37.1724 1.31782 46.0341C0.368648 46.7751 0.000896551 47.902 0.000867645 49.1062L8.82013e-05 81.5757C5.01628e-05 83.1603 1.73388 84.1472 3.09392 83.334C24.8847 70.3056 88.8141 40.0306 110.941 47.2607V2.86458C110.941 1.68773 110.256 0.590571 109.107 0.338815Z" fill="#002B28"/>
<path d="M110.941 85.0181C99.1911 73.6981 14.7892 111.901 1.57209 121.013C0.460665 121.779 0 123.047 0 124.397V156.686C0 158.258 1.71994 159.236 3.07929 158.445C30.2468 142.648 94.7841 118.637 110.941 122.313V85.0181Z" fill="#002B28"/>
<path d="M110.939 47.261C113.976 46.1433 146.128 20.9298 177.319 18.2636C179.012 18.1188 180.422 19.4848 180.422 21.1839V61.3962C180.422 63.0555 179.073 64.396 177.414 64.4274C155.354 64.8451 136.025 70.4727 110.939 85.0187V122.313C116.664 119.835 150.945 98.9325 177.611 99.0544C179.194 99.0616 180.422 100.381 180.422 101.963V137.288C180.422 138.981 179.023 140.335 177.331 140.291C162.11 139.897 146.511 140.543 115.479 157.733C113.458 158.852 110.939 157.414 110.939 155.104V122.313V85.0187V47.261Z" fill="#002B28"/>
</svg>
