<svg width="18" height="18" viewBox="0 0 18 18" fill="none" xmlns="http://www.w3.org/2000/svg">
<path d="M8.77427 0.666748C11.0384 0.666748 11.3209 0.675088 12.2093 0.716748C13.0968 0.758418 13.7009 0.897588 14.2326 1.10425C14.7826 1.31592 15.2459 1.60259 15.7093 2.06509C16.133 2.48167 16.4609 2.98558 16.6701 3.54175C16.8759 4.07259 17.0159 4.67759 17.0576 5.56509C17.0968 6.45342 17.1076 6.73592 17.1076 9.00005C17.1076 11.2642 17.0993 11.5467 17.0576 12.435C17.0159 13.3225 16.8759 13.9267 16.6701 14.4584C16.4615 15.0149 16.1336 15.5189 15.7093 15.935C15.2926 16.3586 14.7887 16.6865 14.2326 16.8959C13.7018 17.1017 13.0968 17.2417 12.2093 17.2834C11.3209 17.3225 11.0384 17.3334 8.77427 17.3334C6.51009 17.3334 6.22758 17.325 5.33925 17.2834C4.45175 17.2417 3.84758 17.1017 3.31592 16.8959C2.75952 16.6871 2.25552 16.3592 1.83925 15.935C1.41542 15.5185 1.08753 15.0146 0.878418 14.4584C0.671748 13.9275 0.532578 13.3225 0.490918 12.435C0.451748 11.5467 0.440918 11.2642 0.440918 9.00005C0.440918 6.73592 0.449248 6.45342 0.490918 5.56509C0.532578 4.67675 0.671748 4.07342 0.878418 3.54175C1.08695 2.98524 1.41492 2.48119 1.83925 2.06509C2.25564 1.64111 2.75961 1.3132 3.31592 1.10425C3.84758 0.897588 4.45092 0.758418 5.33925 0.716748C6.22758 0.677588 6.51009 0.666748 8.77427 0.666748ZM8.77427 4.83342C7.66917 4.83342 6.60938 5.27241 5.82797 6.05381C5.04657 6.83521 4.60759 7.89505 4.60759 9.00005C4.60759 10.1051 5.04657 11.1649 5.82797 11.9463C6.60938 12.7277 7.66917 13.1667 8.77427 13.1667C9.87937 13.1667 10.9392 12.7277 11.7206 11.9463C12.502 11.1649 12.9409 10.1051 12.9409 9.00005C12.9409 7.89505 12.502 6.83521 11.7206 6.05381C10.9392 5.27241 9.87937 4.83342 8.77427 4.83342ZM14.1909 4.62509C14.1909 4.34882 14.0812 4.08387 13.8859 3.88852C13.6905 3.69317 13.4255 3.58342 13.1493 3.58342C12.873 3.58342 12.6081 3.69317 12.4127 3.88852C12.2174 4.08387 12.1076 4.34882 12.1076 4.62509C12.1076 4.90135 12.2174 5.16631 12.4127 5.36166C12.6081 5.55701 12.873 5.66675 13.1493 5.66675C13.4255 5.66675 13.6905 5.55701 13.8859 5.36166C14.0812 5.16631 14.1909 4.90135 14.1909 4.62509ZM8.77427 6.50009C9.43727 6.50009 10.0732 6.76348 10.542 7.23235C11.0109 7.70115 11.2743 8.33705 11.2743 9.00005C11.2743 9.66315 11.0109 10.299 10.542 10.7678C10.0732 11.2366 9.43727 11.5 8.77427 11.5C8.11117 11.5 7.47537 11.2366 7.00647 10.7678C6.53764 10.299 6.27425 9.66315 6.27425 9.00005C6.27425 8.33705 6.53764 7.70115 7.00647 7.23235C7.47537 6.76348 8.11117 6.50009 8.77427 6.50009Z" fill="#003E39"/>
</svg>
